<?xml version="1.0" encoding="UTF-8" standalone="no"?>
<!-- Uploaded to: SVG Repo, www.svgrepo.com, Generator: SVG Repo Mixer Tools -->

<svg
   fill="#000000"
   height="800px"
   width="800px"
   version="1.1"
   id="Layer_1"
   viewBox="0 0 512.001 512.001"
   xml:space="preserve"
   sodipodi:docname="BNG PLlayground.svg"
   inkscape:version="1.4.3 (0d15f75, 2025-12-25)"
   xmlns:inkscape="http://www.inkscape.org/namespaces/inkscape"
   xmlns:sodipodi="http://sodipodi.sourceforge.net/DTD/sodipodi-0.dtd"
   xmlns="http://www.w3.org/2000/svg"
   xmlns:svg="http://www.w3.org/2000/svg"><defs
   id="defs2"><rect
     x="65.809769"
     y="165.20994"
     width="745.84404"
     height="469.58012"
     id="rect3" /><rect
     x="71.293916"
     y="193.3162"
     width="695.11568"
     height="490.14567"
     id="rect2" /></defs><sodipodi:namedview
   id="namedview2"
   pagecolor="#ffffff"
   bordercolor="#000000"
   borderopacity="0.25"
   inkscape:showpageshadow="2"
   inkscape:pageopacity="0.0"
   inkscape:pagecheckerboard="0"
   inkscape:deskcolor="#d1d1d1"
   showgrid="false"
   inkscape:zoom="1.45875"
   inkscape:cx="399.65724"
   inkscape:cy="400"
   inkscape:window-width="2560"
   inkscape:window-height="1369"
   inkscape:window-x="-8"
   inkscape:window-y="-8"
   inkscape:window-maximized="1"
   inkscape:current-layer="Layer_1" />
<g
   id="g2"
   style="fill:#cccccc">
	<g
   id="g1"
   style="fill:#cccccc">
		<path
   d="M484.473,404.646V123.872c0-27.321-22.227-49.548-49.548-49.548H368.86c-27.321,0-49.548,22.227-49.548,49.548v39.174    c-32.308,2.442-61.041,12.186-87.398,29.635c-26.676,17.66-47.673,40.831-67.982,63.239    c-36.083,39.816-70.165,77.422-133.45,82.151C13.39,339.349,0,353.813,0,371v66.678h16.516c52.539,0,98.458-13.494,140.384-41.252    c33.585-22.235,58.486-49.71,80.463-73.96c34.792-38.39,52.921-55.556,81.95-59.841v142.021h-27.527v33.032h220.215v-33.032    H484.473z M319.312,229.34c-19.082,2.105-35.365,8.119-51.289,18.747c-18.359,12.253-35.125,30.117-55.144,52.205    c-20.665,22.801-44.086,48.646-74.215,68.593c-31.92,21.133-66.627,32.729-105.661,35.24l-0.057-33.113    c76.441-5.711,116.614-50.039,155.464-92.91c35.484-39.154,69.15-76.308,130.902-81.928V229.34z M451.441,404.646h-99.097v-33.032    h99.097V404.646z M451.441,338.581h-99.097v-33.032h99.097V338.581z M451.441,272.517h-99.097v-11.011v-22.021h99.097V272.517z     M451.441,206.452h-99.097V173.42h99.097V206.452z M451.441,140.388h-99.097v-16.516c0-9.107,7.409-16.516,16.516-16.516h66.065    c9.107,0,16.516,7.409,16.516,16.516V140.388z"
   id="path1"
   style="fill:#cccccc" />
	</g>
</g>
<text
   xml:space="preserve"
   transform="scale(0.64000125)"
   id="text2"
   style="font-size:9.33333px;font-family:Sans;-inkscape-font-specification:'Sans, Normal';writing-mode:lr-tb;direction:ltr;white-space:pre;shape-inside:url(#rect2);display:inline;fill:#cccccc" /><text
   xml:space="preserve"
   transform="scale(0.64000125)"
   id="text3"
   style="font-style:normal;font-variant:normal;font-weight:normal;font-stretch:normal;font-size:192px;font-family:Sans;-inkscape-font-specification:'Sans, Normal';font-variant-ligatures:normal;font-variant-caps:normal;font-variant-numeric:normal;font-variant-east-asian:normal;writing-mode:lr-tb;direction:ltr;white-space:pre;shape-inside:url(#rect3);display:inline;fill:#cccccc" /><text
   xml:space="preserve"
   style="font-style:normal;font-variant:normal;font-weight:normal;font-stretch:normal;font-size:122.88px;font-family:Sans;-inkscape-font-specification:'Sans, Normal';font-variant-ligatures:normal;font-variant-caps:normal;font-variant-numeric:normal;font-variant-east-asian:normal;writing-mode:lr-tb;direction:ltr;fill:#cccccc;stroke-width:0.640001"
   x="146.5367"
   y="197.86844"
   id="text4"><tspan
     sodipodi:role="line"
     id="tspan4"
     style="stroke-width:0.640001"
     x="146.5367"
     y="197.86844" /></text><text
   xml:space="preserve"
   style="font-style:normal;font-variant:normal;font-weight:normal;font-stretch:normal;font-size:152.834px;font-family:Sans;-inkscape-font-specification:'Sans, Normal';font-variant-ligatures:normal;font-variant-caps:normal;font-variant-numeric:normal;font-variant-east-asian:normal;writing-mode:lr-tb;direction:ltr;fill:#000000;stroke-width:0.796009"
   x="1.5927764"
   y="437.08456"
   id="text5"
   transform="scale(1.0186539,0.98168769)"><tspan
     sodipodi:role="line"
     id="tspan5"
     style="stroke-width:0.796009"
     x="1.5927764"
     y="437.08456">B</tspan></text><text
   xml:space="preserve"
   style="font-style:normal;font-variant:normal;font-weight:normal;font-stretch:normal;font-size:168.977px;font-family:Sans;-inkscape-font-specification:'Sans, Normal';font-variant-ligatures:normal;font-variant-caps:normal;font-variant-numeric:normal;font-variant-east-asian:normal;writing-mode:lr-tb;direction:ltr;fill:#000000;stroke-width:0.88009"
   x="105.48004"
   y="333.70023"
   id="text6"
   transform="scale(0.9471986,1.0557448)"><tspan
     sodipodi:role="line"
     id="tspan6"
     style="stroke-width:0.88009"
     x="105.48004"
     y="333.70023">N</tspan></text><text
   xml:space="preserve"
   style="font-style:normal;font-variant:normal;font-weight:normal;font-stretch:normal;font-size:161.611px;font-family:Sans;-inkscape-font-specification:'Sans, Normal';font-variant-ligatures:normal;font-variant-caps:normal;font-variant-numeric:normal;font-variant-east-asian:normal;writing-mode:lr-tb;direction:ltr;fill:#000000;stroke-width:0.841722"
   x="203.34221"
   y="253.50185"
   id="text7"
   transform="scale(0.99497399,1.0050514)"><tspan
     sodipodi:role="line"
     id="tspan7"
     style="stroke-width:0.841722"
     x="203.34221"
     y="253.50185">G</tspan></text></svg>
